<svg version="1.0" xmlns="http://www.w3.org/2000/svg" width="682.667" height="682.667" viewBox="0 0 512 512"><path d="M53 7.6C42.5 9.8 31.2 16 22.3 24.4S8.2 40.9 4.2 52.5l-2.7 8v170c0 185.9-.4 174.2 6 188 7.6 16.6 23.1 30.1 40.7 35.6l6.6 2 .4 18.8c.3 18.4.4 18.8 3 22.8 5 7.6 5.8 7.8 44.8 8.1 38.1.3 40.4 0 45.4-5.9 3.8-4.5 4.6-9 4.6-26.7V457h206.8l.2 18.2c.1 19.8.8 23.2 5.9 26.7 5.5 3.8 8.5 4.1 43 4.1 30.5 0 34-.2 37.6-1.9 9-4.1 10.4-8.3 10.5-30.7v-17.1l6.2-1.7c9.3-2.6 17.1-7.2 25.4-14.9 12.2-11.4 19.3-25.1 21.4-41 1.3-10.2 1.3-326.3 0-334.7-3.9-24.4-18.2-43.1-40.3-52.8C457.4 5.8 466 6 254.8 6.1 91.7 6.1 58.4 6.4 53 7.6m375 66.5c5.6 2.5 8.6 5.3 11.3 10.4l2.2 4 .3 140c.3 158.1.9 145.8-7.7 153.8-3.8 3.6-6 4.7-10.7 5.7-4.5 1-42.6 1.1-166.4.8-152.4-.4-160.7-.5-164-2.2-4.8-2.5-8.8-6.4-11.3-11.1-2.1-3.8-2.2-5.2-2.2-31.7V316H71c-6.7 0-9.1-.4-11.4-1.9-5.3-3.5-5.5-4.8-5.6-28.9V263l3.4-3.8c3.4-3.7 3.5-3.7 12.5-4l9-.4.6-3c.4-1.6.5-12.6.3-24.4l-.3-21.4h-8c-6.3 0-8.7-.4-11.3-2-5.6-3.4-6.2-6.5-6.2-29.2 0-17.4.3-20.8 1.8-23.7 2.6-5.1 7.2-7.1 16.4-7.1H80v-27.5c0-23.4.2-28.1 1.6-30.8 3.3-6.4 9.1-11.1 15.9-12.8 1.7-.4 75.7-.7 164.5-.8 160.5-.1 161.5 0 166 2"/><path d="M127.5 112c-6.5 3.2-7.5 5.9-7.5 19.9V144h9.9c8.5 0 10.2.3 13.2 2.3 6.3 4.1 6.9 6.8 6.9 28.6 0 17.4-.2 19.9-2 23.6-3 6.2-6 7.5-17.9 7.5H120v49h9.6c18.5 0 20.3 2.6 20.4 29.5 0 9.9-.5 19.6-1 21.6-.5 1.9-2.4 4.8-4.1 6.5-2.9 2.8-3.4 2.9-14 3.2l-10.9.4v12.4c0 14.1 1 17.2 6.3 20.4 3.1 2 6 2 134.3 2h131.1l3.4-2.3c7.4-4.9 6.9 3.6 6.7-118.7-.3-105.3-.4-109.6-2.2-112.6-1-1.7-3.3-4-5-5-3-1.8-7.7-1.9-133.1-2.2-128.3-.2-130.1-.2-134 1.8M271 150.3v15.3l6.8 1.8c3.7 1 9.8 3.4 13.5 5.3l6.8 3.6 10.7-10.6 10.7-10.7 8 8 8 8-10.8 10.8-10.7 10.7 2.8 4.5c1.4 2.5 3.8 7.9 5.2 12l2.6 7.5 15.2.3 15.2.3V240h-29.9l-1.1 4.2c-1.7 6.8-4.1 13-6.7 17.6l-2.4 4.3 10.5 10.7 10.4 10.7-7.9 8-7.8 8-10.4-10.3-10.3-10.3-6.6 3.9c-3.7 2.1-9.5 4.6-13 5.6s-6.9 2-7.5 2.2c-1 .2-1.3 4.2-1.3 15.2v14.9l-5.2.7c-2.9.3-8.1.6-11.5.6H248v-30.8l-7.7-2.6c-4.3-1.4-10.5-4.2-13.7-6.2l-5.9-3.5-9.8 9.7-9.8 9.7-7.6-6.8c-4.3-3.8-7.9-7.5-8.2-8.3-.4-.8 3.2-5.3 9.4-11.5l10-10.2-2.9-5c-1.5-2.8-3.8-8.4-5.1-12.5l-2.4-7.5-14.6-.3-14.7-.3V217h30.8l1.1-4.4c.6-2.5 2.8-7.8 4.9-11.9l3.9-7.4-10.3-10.9-10.3-10.9 8-8 7.9-8 10.7 10.7 10.8 10.6 4.4-2.8c2.5-1.6 8.2-4.1 12.8-5.6l8.3-2.9V135h23z"/><path d="M252.8 194c-6.5 1.1-16.3 6.6-20.5 11.4-16.8 19.3-11 48 11.9 58.7 6.6 3 8.2 3.4 15.9 3.3 7.6 0 9.4-.4 15.1-3.2 7.9-3.8 14.9-11 18.6-19 2.3-4.9 2.7-7 2.7-14.7 0-7.8-.4-9.8-2.9-15.3-7-15.2-24.3-24.1-40.8-21.2"/></svg>